<svg width="100" height="184" viewBox="0 0 100 184" fill="none" xmlns="http://www.w3.org/2000/svg">
<path d="M100 0.432877L99.7555 0.382337C95.8809 -0.399118 91.8605 0.0234893 88.2321 1.59361C84.6038 3.16373 81.5406 5.80647 79.4525 9.16825C72.8877 4.6957 65.3689 1.82503 57.4979 0.786048C49.627 -0.252933 41.6225 0.568637 34.1254 3.18499C26.6283 5.80134 19.8467 10.1398 14.3236 15.853C8.80052 21.5662 4.68935 28.4956 2.3192 36.0862C-0.0509473 43.6769 -0.614226 51.718 0.674456 59.5659C1.96314 67.4138 5.06799 74.8504 9.74044 81.2804C14.4129 87.7104 20.5231 92.9552 27.582 96.5949C34.6409 100.235 42.4524 102.168 50.3911 102.241H50.9111C53.432 102.241 55.9496 102.055 58.4432 101.685C68.6762 100.168 79.6271 93.6918 79.6271 93.6918C82.7316 98.3569 74.5242 101.642 74.5242 101.642L15.5399 123.879C12.7053 125.809 10.4317 128.457 8.95031 131.553C7.46895 134.65 6.83271 138.084 7.10634 141.506C7.37997 144.929 8.55371 148.218 10.5081 151.039C12.4625 153.859 15.1279 156.111 18.233 157.565L59.685 172.532L91.9129 184C91.9129 184 94.3577 177.982 94.3577 174.553C94.3577 161.335 85.1259 157.475 85.1259 157.475L35.7769 139.476L99.9961 115.995L100 0.432877ZM50.523 77.1696C45.5343 77.1696 40.6576 75.6876 36.5096 72.911C32.3616 70.1344 29.1286 66.1879 27.2195 61.5705C25.3104 56.9532 24.8109 51.8724 25.7841 46.9706C26.7574 42.0689 29.1597 37.5663 32.6873 34.0324C36.2148 30.4984 40.7092 28.0918 45.6021 27.1167C50.495 26.1417 55.5666 26.6421 60.1757 28.5547C64.7847 30.4673 68.724 33.7061 71.4956 37.8616C74.2672 42.0171 75.7466 46.9026 75.7466 51.9004C75.7466 58.6022 73.0891 65.0295 68.3588 69.7684C63.6284 74.5073 57.2127 77.1696 50.523 77.1696Z" fill="white"/>
</svg>
