<svg id="Camada_3" data-name="Camada 3" xmlns="http://www.w3.org/2000/svg" viewBox="0 0 257.5 473.3"><title>logo remake - golden ratio</title><path d="M529.5,164.61l-.63-.13a50,50,0,0,0-52.32,22.6,131.05,131.05,0,1,0-74.89,239.41H403a132.07,132.07,0,0,0,19.41-1.43C448.78,421.16,477,404.5,477,404.5c8,12-13.15,20.45-13.15,20.45l-152,57.2a50,50,0,0,0,6.94,86.65l106.82,38.5,83.05,29.5s6.3-15.48,6.3-24.3c0-34-23.79-43.93-23.79-43.93L364,522.27l165.49-60.4ZM402,362a65,65,0,1,1,65-65A65,65,0,0,1,402,362Z" transform="translate(-272 -163.5)"/></svg>